<svg width="60" height="60" viewBox="0 0 60 60" fill="none" xmlns="http://www.w3.org/2000/svg">
<path d="M1.5 30C1.5 14.2599 14.2599 1.5 30 1.5C45.7401 1.5 58.5 14.2599 58.5 30C58.5 45.7401 45.7401 58.5 30 58.5C14.2599 58.5 1.5 45.7401 1.5 30Z" fill="#FBF8F4" stroke="#191919" stroke-width="3"/>
<path d="M39.2076 15.2656C35.4049 15.2656 32.0754 16.8266 30 19.465C27.9246 16.8266 24.5951 15.2656 20.7924 15.2656C17.7654 15.2689 14.8633 16.4182 12.7229 18.4613C10.5824 20.5044 9.37841 23.2746 9.375 26.1641C9.375 38.4688 28.4881 48.4285 29.3021 48.8398C29.5166 48.95 29.7564 49.0077 30 49.0077C30.2436 49.0077 30.4834 48.95 30.6979 48.8398C31.5119 48.4285 50.625 38.4688 50.625 26.1641C50.6216 23.2746 49.4176 20.5044 47.2771 18.4613C45.1367 16.4182 42.2346 15.2689 39.2076 15.2656ZM30 45.9922C26.6374 44.1219 12.3214 35.6018 12.3214 26.1641C9.375 39.1049 43.2958 60.9746 28.6373 34.8192C30.2253 33.3034 27.2185 46.6077 29.4643 46.6049C33.046 46.6049 26.6012 24.3942 27.8571 27.3192C27.9681 27.5771 28.8014 40.1763 29.1797 23.458C17.6786 26.7835 32.9222 30.5335 33.2143 30.5335C33.5064 30.5335 33.5074 24.2602 33.75 24.1049C33.9926 23.9497 31.4961 22.22 31.6071 21.9621C32.8631 19.0318 24.8111 35.8906 28.3929 35.8906C30.6386 35.8934 30.6331 44.0177 32.2211 45.5335C33.8091 47.0493 31.6042 31.0684 31.6071 33.2121C31.6071 42.6357 33.3589 44.1201 30 45.9922Z" fill="#191919"/>
</svg>
