<svg width="48" height="48" viewBox="0 0 48 48" fill="none" xmlns="http://www.w3.org/2000/svg">
<path d="M15.7036 17.8252C17.0127 17.8252 18.074 16.8198 18.074 15.5796C18.074 14.3394 17.0127 13.334 15.7036 13.334C14.3945 13.334 13.3333 14.3394 13.3333 15.5796C13.3333 16.8198 14.3945 17.8252 15.7036 17.8252Z" fill="white"/>
<path d="M20.6513 20.4223V34.6656H25.1419V27.622C25.1419 25.7634 25.497 23.9635 27.8371 23.9635C30.1449 23.9635 30.1735 26.0884 30.1735 27.7393V34.6668H34.6666V26.8558C34.6666 23.0189 33.8278 20.0703 29.274 20.0703C27.0876 20.0703 25.6221 21.2519 25.0228 22.3701H24.962V20.4223H20.6513ZM13.3333 20.4223H17.8311V34.6656H13.3333V20.4223Z" fill="white"/>
<rect x="47" y="47" width="46" height="46" rx="23" transform="rotate(-180 47 47)" stroke="white" stroke-width="2"/>
</svg>
