<svg width="48" height="48" viewBox="0 0 48 48" fill="none" xmlns="http://www.w3.org/2000/svg">
<rect x="47" y="47" width="46" height="46" rx="23" transform="rotate(-180 47 47)" stroke="white" stroke-width="2"/>
<path d="M34.2119 17.6569C33.4488 17.9945 32.6395 18.2163 31.8109 18.3149C32.6839 17.792 33.3372 16.9696 33.6489 16.0009C32.8289 16.4889 31.9299 16.8309 30.9939 17.0159C30.3645 16.3425 29.5302 15.8959 28.6208 15.7455C27.7114 15.5951 26.7778 15.7494 25.9651 16.1844C25.1525 16.6193 24.5063 17.3106 24.127 18.1507C23.7477 18.9908 23.6566 19.9327 23.8679 20.8299C22.2048 20.7467 20.5778 20.3146 19.0926 19.5618C17.6074 18.8089 16.2971 17.7521 15.2469 16.4599C14.8752 17.0984 14.6798 17.8241 14.6809 18.5629C14.6809 20.0129 15.4199 21.2939 16.5409 22.0439C15.8769 22.023 15.2275 21.8436 14.6469 21.5209V21.5719C14.6469 22.5378 14.9809 23.4739 15.5924 24.2216C16.2039 24.9692 17.0552 25.4823 18.0019 25.6739C17.3855 25.8411 16.7392 25.8657 16.1119 25.7459C16.3788 26.5773 16.8991 27.3044 17.5999 27.8253C18.3007 28.3462 19.1468 28.6349 20.0199 28.6509C19.1522 29.3324 18.1588 29.8361 17.0963 30.1333C16.0338 30.4305 14.9232 30.5153 13.8279 30.3829C15.7396 31.6123 17.965 32.265 20.2379 32.2629C27.9319 32.2629 32.1379 25.8899 32.1379 20.3629C32.1379 20.1829 32.1339 20.0009 32.1259 19.8219C32.9443 19.2303 33.6507 18.4965 34.2119 17.6569Z" fill="white"/>
</svg>
